# xmcd
# 
# Track frame offsets:
#     150
#     19481
#     28307
#     54681
#     58077
#     92429
#     108900
#     138681
#     160660
# 
# Disc length: 2480
# 
# Revision: 7
# Processed by: cddbd v1.5.2PL0 Copyright (c) Steve Scherf et al.
# Submitted via: fre:ac v1.0.31
# 
DISCID=7a09ae09
DTITLE=Black Sabbath - Born Again (2011 Deluxe Edition Disc 1: Original Album)
DYEAR=1983
DGENRE=Rock/Pop
TTITLE0=Trashed
TTITLE1=Stonehenge
TTITLE2=Disturbing the Priest
TTITLE3=The Dark
TTITLE4=Zero the Hero
TTITLE5=Digital Bitch
TTITLE6=Born Again
TTITLE7=Hot Line
TTITLE8=Keep It Warm
EXTD=YEAR: 1983
EXTT0=
EXTT1=
EXTT2=
EXTT3=
EXTT4=
EXTT5=
EXTT6=
EXTT7=
EXTT8=
PLAYORDER=
